<svg width="64" height="106" viewBox="0 0 64 106" fill="none" xmlns="http://www.w3.org/2000/svg">
<path d="M59.3673 71.7242C30.7155 27.2719 29.4547 1.27299 29.4232 1.01516C29.4177 0.860471 29.3782 0.708892 29.3076 0.57123C29.2369 0.433569 29.1368 0.313214 29.0144 0.218742C28.892 0.12427 28.7503 0.0580098 28.5994 0.0246818C28.4485 -0.00864618 28.2921 -0.00821539 28.1413 0.0259343C23.5148 1.01642 19.2697 3.31742 15.9113 6.65512C12.5529 9.99283 10.2226 14.2267 9.19772 18.8529C7.93652 24.0691 8.31821 29.5484 10.2904 34.5385C5.81562 39.4467 2.56129 45.3439 0.792337 51.7501C-0.563031 56.7226 -0.179534 60.9374 1.94282 64.2734C5.54663 70.8034 17.7765 72.2556 17.7765 72.2556C30.8258 74.4867 50.5469 77.8542 52.0021 88.3148C52.2123 89.8197 52.7586 97.5179 43.2658 102.332C27.8314 104.963 13.7524 104.437 3.56611 99.4069C9.59172 97.4547 26.0663 91.4772 32.6855 82.6268C33.7476 81.224 34.6614 79.7145 35.412 78.1226C34.7343 77.9121 34.0514 77.7069 33.3737 77.5175C32.7057 78.8727 31.9125 80.1622 31.0044 81.3692C23.4291 91.493 0.986713 98.0072 0.760818 98.0704C0.57674 98.1237 0.410717 98.2264 0.280724 98.3674C0.15073 98.5084 0.0617096 98.6823 0.0232982 98.8704C-0.0151131 99.0584 -0.0014497 99.2534 0.0628011 99.4342C0.127052 99.615 0.239454 99.7748 0.387834 99.8962C0.776583 100.212 8.12603 106 26.0715 106C32.2636 105.95 38.4399 105.365 44.5318 104.253C54.3241 102.369 60.4548 98.1177 62.8661 92.1508C66.6853 82.6899 59.6563 72.1504 59.3673 71.7242ZM11.2623 19.3265C12.1556 15.2911 14.1355 11.5779 16.9871 8.58997C19.8386 5.60208 23.4529 3.45367 27.4374 2.37798C27.6843 4.8879 28.5459 10.9443 31.5245 20.2315C24.1913 23.0294 17.5172 27.3205 11.9242 32.8337C10.4137 28.4883 10.1839 23.7992 11.2623 19.3265ZM60.9328 91.351C59.2308 95.5605 55.275 98.7439 49.1706 100.822C53.4678 96.8233 54.6446 91.8771 54.1087 88.0255C53.1263 80.9798 45.5983 76.865 36.7726 74.1867C38.9475 64.5838 33.0585 54.36 18.7798 42.6681C16.7424 40.9969 15.0216 38.9721 13.6999 36.6906C13.206 37.2168 12.7227 37.7904 12.2447 38.3639C13.6453 40.615 15.4059 42.6202 17.456 44.2993C27.0119 52.1237 32.5647 59.0799 34.4349 65.5625C35.2183 68.1725 35.3267 70.9391 34.7501 73.6027C29.129 72.0609 23.1664 71.0401 18.1442 70.1824C18.1442 70.1824 7.83184 68.9249 3.72897 63.1421C1.94282 60.327 1.62763 56.6805 2.8359 52.3079C8.33092 32.1865 27.5582 23.9411 32.1759 22.231C36.2525 34.3333 43.7701 51.4134 57.6075 72.8871C57.681 72.9976 64.3213 82.9583 60.9328 91.3562V91.351Z" fill="#272D3A"/>
</svg>
