<svg width="318" height="531" viewBox="0 0 318 531" fill="none" xmlns="http://www.w3.org/2000/svg">
<path d="M294.981 359.297C152.618 136.617 146.353 6.37697 146.196 5.08538C146.169 4.31047 145.973 3.55115 145.622 2.86154C145.271 2.17193 144.774 1.56903 144.165 1.09577C143.557 0.622524 142.853 0.290596 142.103 0.123642C141.353 -0.0433124 140.576 -0.0411544 139.827 0.129916C116.839 5.09168 95.7464 16.6184 79.0594 33.3384C62.3724 50.0584 50.7937 71.2677 45.7012 94.4424C39.4346 120.572 41.3311 148.021 51.1305 173.019C28.8964 197.606 12.7264 227.147 3.93692 259.239C-2.79756 284.148 -0.89206 305.262 9.65341 321.973C27.5598 354.685 88.3268 361.96 88.3268 361.96C153.166 373.136 251.155 390.006 258.386 442.407C259.43 449.946 262.144 488.509 214.977 512.628C138.287 525.807 68.3322 523.171 17.7191 497.972C47.6589 488.193 129.517 458.249 162.406 413.913C167.684 406.886 172.224 399.325 175.953 391.35C172.586 390.296 169.193 389.268 165.826 388.319C162.507 395.107 158.565 401.567 154.053 407.614C116.413 458.328 4.90273 490.961 3.78031 491.277C2.86568 491.544 2.04075 492.059 1.39485 492.765C0.748942 493.471 0.306619 494.343 0.115763 495.285C-0.0750934 496.227 -0.00720321 497.203 0.312043 498.109C0.631289 499.015 1.18979 499.815 1.92705 500.424C3.85864 502.005 40.3762 531 129.543 531C160.31 530.747 190.998 527.819 221.268 522.249C269.923 512.812 300.385 491.514 312.366 461.623C331.342 414.23 296.417 361.433 294.981 359.297ZM55.9595 96.8147C60.3982 76.5996 70.2359 57.9985 84.4045 43.0309C98.5731 28.0633 116.531 17.3009 136.33 11.9123C137.556 24.4856 141.837 54.8248 156.637 101.348C120.2 115.364 87.0388 136.86 59.2484 164.478C51.7431 142.71 50.6013 119.22 55.9595 96.8147ZM302.76 457.617C294.303 478.704 274.647 494.651 244.316 505.063C265.668 485.03 271.515 460.252 268.853 440.958C263.971 405.663 226.566 385.05 182.714 371.634C193.52 323.528 164.259 272.313 93.3124 213.743C83.1886 205.371 74.6387 195.228 68.0712 183.799C65.6175 186.435 63.216 189.308 60.8407 192.182C67.8003 203.458 76.5482 213.503 86.7345 221.914C134.215 261.11 161.806 295.957 171.098 328.431C174.991 341.506 175.53 355.365 172.664 368.708C144.735 360.984 115.108 355.871 90.154 351.574C90.154 351.574 38.9145 345.275 18.5283 316.306C9.65339 302.204 8.08728 283.937 14.0909 262.033C41.3943 161.236 136.93 119.932 159.874 111.365C180.13 171.991 217.483 257.552 286.237 365.123C286.603 365.676 319.596 415.574 302.76 457.643V457.617Z" fill="#272D3A"/>
</svg>
