<svg width="258" height="387" viewBox="0 0 258 387" fill="none" xmlns="http://www.w3.org/2000/svg">
<g clip-path="url(#clip0_256_14)">
<path d="M2.5231 177.417C12.9001 170.614 8.47548 166.986 17.216 154.691C25.9566 142.396 42.3257 124.883 48.6518 108.302C54.978 91.7219 51.2542 76.0714 57.0209 59.6769C62.7876 43.2824 78.04 26.1462 95.7091 23.9094C113.378 21.6726 133.471 34.333 137.185 42.5384C140.9 50.7438 128.257 54.4616 126.024 45.8912C123.79 37.3208 131.976 16.4574 148.716 6.95686C165.457 -2.54364 190.755 -0.681208 201.914 10.3097C213.074 21.3006 210.098 41.4223 199.683 51.4808C189.269 61.5393 171.414 61.537 162.857 52.2365C154.3 42.936 155.045 24.2907 158.766 25.7811C162.488 27.2715 169.183 48.8813 181.364 61.8207C193.545 74.76 211.217 79.0523 226.655 74.767C242.093 70.4818 255.302 57.6285 255.024 50.8298C254.745 44.0311 240.979 43.2847 234.376 49.7114C227.774 56.1381 228.329 69.7378 229.817 81.4727C231.305 93.2077 233.721 103.096 233.164 111.467C232.607 119.837 229.071 126.743 225.445 132.051C221.819 137.36 218.098 141.087 217.819 138.294C217.54 135.502 220.702 126.185 224.514 120.037C228.326 113.89 232.793 110.909 231.305 115.285C229.817 119.661 222.376 131.4 218.1 141.366C213.824 151.331 212.705 159.53 215.217 166.796C217.728 174.062 223.864 180.395 228.05 187.941C232.236 195.486 234.457 204.242 239.351 212.206C244.245 220.169 251.767 227.342 251.581 234.048C251.395 240.754 243.488 246.997 236.746 248.999C230.005 251 224.421 248.766 223.864 243.83C223.307 238.894 227.771 231.253 234.235 229.856C240.698 228.458 249.162 233.304 247.21 238.519C245.257 243.734 232.886 249.324 226.515 254.167C220.145 259.011 219.783 263.11 219.679 262.084C219.574 261.059 219.774 254.914 216.609 253.144C213.445 251.375 206.938 253.981 200.336 255.004C193.733 256.027 187.036 255.469 183.781 249.789C180.526 244.109 180.712 233.302 185.455 227.154C190.198 221.006 199.498 219.516 204.426 214.391C209.355 209.267 209.914 200.513 206.381 189.512C202.847 178.512 195.219 165.294 193.267 151.787C191.314 138.28 195.033 124.497 197.824 121.142C200.614 117.787 202.467 124.862 195.686 128.036C188.904 131.21 173.457 130.456 157.274 129.712C141.09 128.968 124.166 128.222 109.378 133.997C94.5901 139.773 81.9332 152.08 85.1972 148.818C88.4613 145.556 107.612 126.743 127.05 116.875C146.488 107.007 166.202 106.073 172.993 111.474C179.783 116.875 173.643 128.612 171.135 137.09C168.628 145.567 169.743 150.783 172.343 151.994C174.943 153.205 179.04 150.411 176.714 150.411C174.388 150.411 165.647 153.201 155.138 156.37C144.628 159.539 132.352 163.078 125.285 164.754C118.219 166.431 116.357 166.245 119.519 164.101C122.681 161.957 130.864 157.86 139.235 153.763C147.607 149.667 156.162 145.565 161.555 144.821C166.947 144.077 169.181 146.681 168.624 151.331C168.066 155.982 163.052 165.863 163.135 170.614C163.219 175.364 166.764 179.089 166.485 178.996C166.207 178.903 162.114 174.992 153.464 172.95C144.814 170.909 131.609 170.716 125.75 169.784C119.89 168.851 121.378 167.177 127.238 168.014C133.097 168.851 143.326 172.199 150.581 181.614C157.835 191.028 162.114 206.493 159.231 222.225C156.347 237.956 146.302 253.988 129.654 259.299C113.007 264.609 89.7567 259.206 71.5304 242.439C53.3042 225.673 40.0947 197.541 46.7899 188.32C53.4852 179.098 80.0853 188.785 96.1734 213.198C112.262 237.612 117.845 276.723 126.121 309.324C134.397 341.925 145.371 367.99 157.833 378.706C170.295 389.423 184.245 384.751 190.29 378.613C196.336 372.475 194.469 364.827 188.338 359.331C182.207 353.834 171.776 350.481 165.276 354.767C158.776 359.052 156.162 370.975 161.462 376.937C166.762 382.898 179.971 382.898 188.433 378.332C196.895 373.765 200.616 364.639 201.638 356.162C202.659 347.684 200.988 339.86 203.778 334.273C206.569 328.685 213.824 325.33 216.612 320.02C219.4 314.709 217.728 307.445 212.433 304.651C207.138 301.856 198.202 303.535 189.552 303.346C180.902 303.158 172.533 301.112 173.838 304.837C175.142 308.561 186.114 318.064 195.04 321.045C203.966 324.026 210.852 320.487 213.921 315.362C216.99 310.238 216.243 303.535 218.293 297.48C220.342 291.425 225.174 286.022 224.895 283.88C224.616 281.739 219.221 282.855 215.224 284.624C211.226 286.394 208.619 288.809 205.085 290.958C201.552 293.106 197.081 294.966 191.509 297.306L172.535 305.225" stroke="#272D3A" stroke-width="2.5" stroke-miterlimit="22.93"/>
</g>
<defs>
<clipPath id="clip0_256_14">
<rect width="258" height="387" fill="white" transform="matrix(-1 0 0 1 258 0)"/>
</clipPath>
</defs>
</svg>
